<svg xmlns="http://www.w3.org/2000/svg" viewBox="0 0 640 760"><g font-family="Arial,sans-serif" fill="#17191c"><rect width="640" height="760" fill="white"/><rect width="640" height="28" fill="#337b82"/><text x="320" y="19" text-anchor="middle" fill="white" font-size="10">PAIEMENT À LA LIVRAISON</text><text x="32" y="65" font-size="24" font-weight="bold">mustahr®</text><text x="490" y="61" font-size="11">La collection →</text><rect x="125" y="90" width="390" height="220" rx="15" fill="#e9f7f5"/><g transform="translate(200 80) scale(.85)"><path d="M130 60v130" stroke="#b79064" stroke-width="12"/><ellipse cx="130" cy="200" rx="65" ry="12" fill="#b79064"/><rect x="78" y="165" width="104" height="25" rx="12" fill="#67b5aa"/><rect x="88" y="130" width="84" height="25" rx="12" fill="#f0ba72"/><rect x="100" y="95" width="60" height="25" rx="12" fill="#ee96a4"/><circle cx="130" cy="73" r="15" fill="#f0ba72"/></g><text x="320" y="345" text-anchor="middle" font-size="24" font-weight="bold">De petites découvertes.</text><text x="320" y="371" text-anchor="middle" font-size="13" fill="#666">Jeu d’éveil · Votre nouvel essentiel</text><rect x="210" y="395" width="220" height="35" rx="5" fill="#337b82"/><text x="320" y="417" text-anchor="middle" fill="white" font-size="12">Commander maintenant →</text><rect x="0" y="460" width="640" height="130" fill="#e9f7f5"/><text x="30" y="490" font-size="18" font-weight="bold">Les détails qui comptent</text><text x="30" y="525" font-size="12" fill="#337b82">Caractéristiques</text><rect x="30" y="539" width="155" height="5" fill="#bfc4c9"/><rect x="30" y="552" width="130" height="5" fill="#d8dce0"/><text x="237" y="525" font-size="12" fill="#337b82">Contenu inclus</text><rect x="237" y="539" width="155" height="5" fill="#bfc4c9"/><rect x="237" y="552" width="130" height="5" fill="#d8dce0"/><text x="444" y="525" font-size="12" fill="#337b82">Utilisation</text><rect x="444" y="539" width="155" height="5" fill="#bfc4c9"/><rect x="444" y="552" width="130" height="5" fill="#d8dce0"/><text x="30" y="631" font-size="18" font-weight="bold">Livraison, retours &amp; questions</text><text x="30" y="660" font-size="11" fill="#666">Toutes les informations avant de commander.</text><rect x="350" y="610" width="260" height="18" rx="3" fill="#f0f1f5"/><rect x="350" y="641" width="260" height="18" rx="3" fill="#f0f1f5"/><rect y="704" width="640" height="56" fill="#17191c"/><text x="30" y="738" fill="white" font-size="17">mustahr®</text></g></svg>